<mxfile host="app.diagrams.net" modified="2022-08-26T15:14:14.708Z" agent="5.0 (Windows NT 10.0; Win64; x64) AppleWebKit/537.36 (KHTML, like Gecko) Chrome/104.0.0.0 Safari/537.36" etag="Rjsg_R-0MKAMdct5vlvR" version="20.2.7" type="github">
  <diagram id="wpC7ARWyS0RmUF-f4s2C" name="PÃ¡gina-1">
    <mxGraphModel dx="1418" dy="780" grid="1" gridSize="10" guides="1" tooltips="1" connect="1" arrows="1" fold="1" page="1" pageScale="1" pageWidth="827" pageHeight="1169" background="#5E5E5E" math="0" shadow="0">
      <root>
        <mxCell id="0" />
        <mxCell id="1" parent="0" />
        <mxCell id="ZUtfHLllHMngdYOLlIoZ-3" value="" style="edgeStyle=orthogonalEdgeStyle;rounded=0;orthogonalLoop=1;jettySize=auto;html=1;fillColor=#f5f5f5;strokeColor=#0000FF;" edge="1" parent="1" source="ZUtfHLllHMngdYOLlIoZ-1" target="ZUtfHLllHMngdYOLlIoZ-2">
          <mxGeometry relative="1" as="geometry" />
        </mxCell>
        <mxCell id="ZUtfHLllHMngdYOLlIoZ-1" value="inicio" style="ellipse;whiteSpace=wrap;html=1;fillColor=#e1d5e7;strokeColor=#9673a6;" vertex="1" parent="1">
          <mxGeometry x="80" y="40" width="120" height="80" as="geometry" />
        </mxCell>
        <mxCell id="ZUtfHLllHMngdYOLlIoZ-5" value="" style="edgeStyle=orthogonalEdgeStyle;rounded=0;orthogonalLoop=1;jettySize=auto;html=1;strokeColor=#0000FF;" edge="1" parent="1" source="ZUtfHLllHMngdYOLlIoZ-2" target="ZUtfHLllHMngdYOLlIoZ-4">
          <mxGeometry relative="1" as="geometry" />
        </mxCell>
        <mxCell id="ZUtfHLllHMngdYOLlIoZ-2" value="num_secreto, num_ingresado" style="rounded=0;whiteSpace=wrap;html=1;fillColor=#dae8fc;strokeColor=#6c8ebf;" vertex="1" parent="1">
          <mxGeometry x="80" y="160" width="120" height="60" as="geometry" />
        </mxCell>
        <mxCell id="ZUtfHLllHMngdYOLlIoZ-7" value="" style="edgeStyle=orthogonalEdgeStyle;rounded=0;orthogonalLoop=1;jettySize=auto;html=1;strokeColor=#0000FF;" edge="1" parent="1" source="ZUtfHLllHMngdYOLlIoZ-4" target="ZUtfHLllHMngdYOLlIoZ-6">
          <mxGeometry relative="1" as="geometry" />
        </mxCell>
        <mxCell id="ZUtfHLllHMngdYOLlIoZ-4" value="num_secreto = 8" style="shape=parallelogram;perimeter=parallelogramPerimeter;whiteSpace=wrap;html=1;fixedSize=1;fillColor=#d5e8d4;strokeColor=#82b366;" vertex="1" parent="1">
          <mxGeometry x="80" y="260" width="120" height="60" as="geometry" />
        </mxCell>
        <mxCell id="ZUtfHLllHMngdYOLlIoZ-11" value="" style="edgeStyle=orthogonalEdgeStyle;rounded=0;orthogonalLoop=1;jettySize=auto;html=1;fontSize=12;fontColor=#000000;strokeColor=#0000FF;" edge="1" parent="1" source="ZUtfHLllHMngdYOLlIoZ-6">
          <mxGeometry relative="1" as="geometry">
            <mxPoint x="140" y="480" as="targetPoint" />
          </mxGeometry>
        </mxCell>
        <mxCell id="ZUtfHLllHMngdYOLlIoZ-6" value="&quot;bienvenido al juego *numero secreto*&quot;&amp;nbsp;" style="shape=document;whiteSpace=wrap;html=1;boundedLbl=1;fillColor=#f8cecc;strokeColor=#b85450;" vertex="1" parent="1">
          <mxGeometry x="30" y="360" width="220" height="80" as="geometry" />
        </mxCell>
        <mxCell id="ZUtfHLllHMngdYOLlIoZ-13" value="" style="edgeStyle=orthogonalEdgeStyle;rounded=0;orthogonalLoop=1;jettySize=auto;html=1;fontSize=12;fontColor=#000000;strokeColor=#0000FF;" edge="1" parent="1" target="ZUtfHLllHMngdYOLlIoZ-12">
          <mxGeometry relative="1" as="geometry">
            <mxPoint x="140" y="580" as="sourcePoint" />
          </mxGeometry>
        </mxCell>
        <mxCell id="ZUtfHLllHMngdYOLlIoZ-10" value="&lt;pre style=&quot;box-sizing: border-box; font-family: ui-monospace, SFMono-Regular, &amp;quot;SF Mono&amp;quot;, Menlo, Consolas, &amp;quot;Liberation Mono&amp;quot;, monospace; margin-top: 0px; margin-bottom: 16px; overflow-wrap: normal; padding: 16px; overflow: auto; line-height: 1.45; background-color: var(--color-canvas-subtle); border-radius: 6px; text-align: start;&quot; class=&quot;notranslate&quot;&gt;&lt;code style=&quot;box-sizing: border-box; font-family: ui-monospace, SFMono-Regular, &amp;quot;SF Mono&amp;quot;, Menlo, Consolas, &amp;quot;Liberation Mono&amp;quot;, monospace; padding: 0px; margin: 0px; background: transparent; border-radius: 6px; word-break: normal; border: 0px; display: inline; overflow: visible; line-height: inherit; overflow-wrap: normal;&quot;&gt;&quot;instrucciones del juego:&lt;br&gt;*ingresa un numero al azar &lt;br&gt;*comprueba si tubiste suerte y ganas&quot;&lt;/code&gt;&lt;/pre&gt;" style="shape=document;whiteSpace=wrap;html=1;boundedLbl=1;fillColor=#f8cecc;strokeColor=#b85450;" vertex="1" parent="1">
          <mxGeometry x="15" y="480" width="250" height="100" as="geometry" />
        </mxCell>
        <mxCell id="ZUtfHLllHMngdYOLlIoZ-15" value="" style="edgeStyle=orthogonalEdgeStyle;rounded=0;orthogonalLoop=1;jettySize=auto;html=1;fontSize=12;fontColor=#000000;strokeColor=#0000FF;" edge="1" parent="1" source="ZUtfHLllHMngdYOLlIoZ-12" target="ZUtfHLllHMngdYOLlIoZ-14">
          <mxGeometry relative="1" as="geometry" />
        </mxCell>
        <mxCell id="ZUtfHLllHMngdYOLlIoZ-12" value="&quot;ingresa un numero del 1 al 10&quot;" style="shape=document;whiteSpace=wrap;html=1;boundedLbl=1;fontSize=12;fillColor=#f8cecc;strokeColor=#b85450;" vertex="1" parent="1">
          <mxGeometry x="50" y="620" width="180" height="80" as="geometry" />
        </mxCell>
        <mxCell id="ZUtfHLllHMngdYOLlIoZ-17" value="" style="edgeStyle=orthogonalEdgeStyle;rounded=0;orthogonalLoop=1;jettySize=auto;html=1;fontSize=12;fontColor=#000000;strokeColor=#0000FF;" edge="1" parent="1" source="ZUtfHLllHMngdYOLlIoZ-14" target="ZUtfHLllHMngdYOLlIoZ-16">
          <mxGeometry relative="1" as="geometry" />
        </mxCell>
        <mxCell id="ZUtfHLllHMngdYOLlIoZ-14" value="asignar num_ingresado" style="shape=parallelogram;perimeter=parallelogramPerimeter;whiteSpace=wrap;html=1;fixedSize=1;fontSize=12;fillColor=#d5e8d4;strokeColor=#82b366;" vertex="1" parent="1">
          <mxGeometry x="60" y="740" width="160" height="60" as="geometry" />
        </mxCell>
        <mxCell id="ZUtfHLllHMngdYOLlIoZ-16" value="&lt;font style=&quot;font-size: 20px;&quot;&gt;1&lt;/font&gt;" style="ellipse;whiteSpace=wrap;html=1;aspect=fixed;fontSize=12;fontColor=#ffffff;fillColor=#1ba1e2;strokeColor=#006EAF;" vertex="1" parent="1">
          <mxGeometry x="100" y="840" width="80" height="80" as="geometry" />
        </mxCell>
        <mxCell id="ZUtfHLllHMngdYOLlIoZ-20" value="" style="edgeStyle=orthogonalEdgeStyle;rounded=0;orthogonalLoop=1;jettySize=auto;html=1;fontSize=20;fontColor=#000000;strokeColor=#0000FF;" edge="1" parent="1" source="ZUtfHLllHMngdYOLlIoZ-18" target="ZUtfHLllHMngdYOLlIoZ-19">
          <mxGeometry relative="1" as="geometry" />
        </mxCell>
        <mxCell id="ZUtfHLllHMngdYOLlIoZ-18" value="&lt;font style=&quot;font-size: 20px;&quot;&gt;1&lt;/font&gt;" style="ellipse;whiteSpace=wrap;html=1;aspect=fixed;fontSize=12;fontColor=#ffffff;fillColor=#1ba1e2;strokeColor=#006EAF;" vertex="1" parent="1">
          <mxGeometry x="520" y="40" width="80" height="80" as="geometry" />
        </mxCell>
        <mxCell id="ZUtfHLllHMngdYOLlIoZ-23" style="edgeStyle=orthogonalEdgeStyle;rounded=0;orthogonalLoop=1;jettySize=auto;html=1;fontSize=12;fontColor=#000000;strokeColor=#0000FF;" edge="1" parent="1" source="ZUtfHLllHMngdYOLlIoZ-19">
          <mxGeometry relative="1" as="geometry">
            <mxPoint x="400" y="310" as="targetPoint" />
            <Array as="points">
              <mxPoint x="400" y="220" />
            </Array>
          </mxGeometry>
        </mxCell>
        <mxCell id="ZUtfHLllHMngdYOLlIoZ-25" value="si" style="edgeLabel;html=1;align=center;verticalAlign=middle;resizable=0;points=[];fontSize=20;fontColor=#000000;" vertex="1" connectable="0" parent="ZUtfHLllHMngdYOLlIoZ-23">
          <mxGeometry x="-0.5437" y="2" relative="1" as="geometry">
            <mxPoint as="offset" />
          </mxGeometry>
        </mxCell>
        <mxCell id="ZUtfHLllHMngdYOLlIoZ-26" style="edgeStyle=orthogonalEdgeStyle;rounded=0;orthogonalLoop=1;jettySize=auto;html=1;fontSize=20;fontColor=#000000;strokeColor=#0000FF;" edge="1" parent="1" source="ZUtfHLllHMngdYOLlIoZ-19">
          <mxGeometry relative="1" as="geometry">
            <mxPoint x="720" y="310" as="targetPoint" />
          </mxGeometry>
        </mxCell>
        <mxCell id="ZUtfHLllHMngdYOLlIoZ-27" value="no" style="edgeLabel;html=1;align=center;verticalAlign=middle;resizable=0;points=[];fontSize=20;fontColor=#000000;" vertex="1" connectable="0" parent="ZUtfHLllHMngdYOLlIoZ-26">
          <mxGeometry x="-0.5116" y="-1" relative="1" as="geometry">
            <mxPoint as="offset" />
          </mxGeometry>
        </mxCell>
        <mxCell id="ZUtfHLllHMngdYOLlIoZ-19" value="&lt;font style=&quot;font-size: 12px;&quot;&gt;si num_secreto es == a num_asigado&amp;nbsp;&lt;/font&gt;" style="rhombus;whiteSpace=wrap;html=1;fontSize=20;fillColor=#ffe6cc;strokeColor=#d79b00;" vertex="1" parent="1">
          <mxGeometry x="434.38" y="160" width="251.25" height="120" as="geometry" />
        </mxCell>
        <mxCell id="ZUtfHLllHMngdYOLlIoZ-21" value="&quot;**felicidades ganaste**&quot;" style="shape=document;whiteSpace=wrap;html=1;boundedLbl=1;fontSize=12;fillColor=#f8cecc;strokeColor=#b85450;" vertex="1" parent="1">
          <mxGeometry x="320" y="310" width="160" height="80" as="geometry" />
        </mxCell>
        <mxCell id="ZUtfHLllHMngdYOLlIoZ-29" value="" style="edgeStyle=orthogonalEdgeStyle;rounded=0;orthogonalLoop=1;jettySize=auto;html=1;fontSize=20;fontColor=#000000;strokeColor=#0000FF;" edge="1" parent="1" source="ZUtfHLllHMngdYOLlIoZ-22" target="ZUtfHLllHMngdYOLlIoZ-28">
          <mxGeometry relative="1" as="geometry">
            <Array as="points">
              <mxPoint x="560" y="360" />
            </Array>
          </mxGeometry>
        </mxCell>
        <mxCell id="ZUtfHLllHMngdYOLlIoZ-30" value="si" style="edgeLabel;html=1;align=center;verticalAlign=middle;resizable=0;points=[];fontSize=20;fontColor=#000000;" vertex="1" connectable="0" parent="ZUtfHLllHMngdYOLlIoZ-29">
          <mxGeometry x="-0.0412" relative="1" as="geometry">
            <mxPoint as="offset" />
          </mxGeometry>
        </mxCell>
        <mxCell id="ZUtfHLllHMngdYOLlIoZ-32" style="edgeStyle=orthogonalEdgeStyle;rounded=0;orthogonalLoop=1;jettySize=auto;html=1;fontSize=20;fontColor=#000000;strokeColor=#0000FF;" edge="1" parent="1" source="ZUtfHLllHMngdYOLlIoZ-22">
          <mxGeometry relative="1" as="geometry">
            <mxPoint x="880" y="430" as="targetPoint" />
          </mxGeometry>
        </mxCell>
        <mxCell id="ZUtfHLllHMngdYOLlIoZ-34" value="no" style="edgeLabel;html=1;align=center;verticalAlign=middle;resizable=0;points=[];fontSize=20;fontColor=none;noLabel=1;" vertex="1" connectable="0" parent="ZUtfHLllHMngdYOLlIoZ-32">
          <mxGeometry x="-0.3391" y="-1" relative="1" as="geometry">
            <mxPoint as="offset" />
          </mxGeometry>
        </mxCell>
        <mxCell id="ZUtfHLllHMngdYOLlIoZ-35" value="no" style="edgeLabel;html=1;align=center;verticalAlign=middle;resizable=0;points=[];fontSize=20;fontColor=none;" vertex="1" connectable="0" parent="ZUtfHLllHMngdYOLlIoZ-32">
          <mxGeometry x="-0.287" y="-1" relative="1" as="geometry">
            <mxPoint as="offset" />
          </mxGeometry>
        </mxCell>
        <mxCell id="ZUtfHLllHMngdYOLlIoZ-22" value="si num_secreto es &amp;gt; a num_asignado&amp;nbsp;" style="rhombus;whiteSpace=wrap;html=1;fontSize=12;fillColor=#ffe6cc;strokeColor=#d79b00;" vertex="1" parent="1">
          <mxGeometry x="600" y="310" width="240" height="90" as="geometry" />
        </mxCell>
        <mxCell id="ZUtfHLllHMngdYOLlIoZ-28" value="&quot;**perdiste** el numero es menor&quot;" style="shape=document;whiteSpace=wrap;html=1;boundedLbl=1;fillColor=#ffcccc;strokeColor=#36393d;size=0.375;" vertex="1" parent="1">
          <mxGeometry x="465.01" y="420" width="190" height="80" as="geometry" />
        </mxCell>
        <mxCell id="ZUtfHLllHMngdYOLlIoZ-33" value="&lt;font style=&quot;font-size: 13px;&quot;&gt;&quot;**perdiste el numero ingresado es mayor**&quot;&lt;/font&gt;" style="shape=document;whiteSpace=wrap;html=1;boundedLbl=1;fontSize=20;fillColor=#f8cecc;strokeColor=#b85450;" vertex="1" parent="1">
          <mxGeometry x="740" y="430" width="280" height="80" as="geometry" />
        </mxCell>
      </root>
    </mxGraphModel>
  </diagram>
</mxfile>
